<svg version="1.1" id="Layer_1" x="0" y="0" viewBox="0 0 212.395 315" style="enable-background:new 0 0 212.3951721 315" xml:space="preserve" xmlns="http://www.w3.org/2000/svg"><style id="style1"></style><g id="color_index_g" style="display:inline"><linearGradient id="SVGID_1_" gradientUnits="userSpaceOnUse" x1="-24.98" y1="19.446" x2="258.672" y2="276.229"><stop offset="0" style="stop-color:#00fbff" id="stop1"/><stop offset="1" style="stop-color:#db3cff" id="stop2"/></linearGradient><path d="M212.393 28.442c0-18.084-16.661-31.572-34.349-27.809L34.443 31.191C14.36 35.464.003 53.197.003 73.728v167.544c0 20.531 14.358 38.264 34.44 42.538l143.601 30.557c17.688 3.764 34.349-9.725 34.349-27.81V175.483c0-6.754-2.38-13.042-6.415-17.982a28.376 28.376 0 0 0 6.415-17.982z" style="fill:url(#SVGID_1_)" id="path2"/></g><linearGradient id="SVGID_00000150823088204773602280000003568362888554918308_" gradientUnits="userSpaceOnUse" x1="171.167" y1="-1.81" x2="60.423" y2="179.429"><stop offset="0" style="stop-color:#000;stop-opacity:0" id="stop3"/><stop offset="1" style="stop-color:#000;stop-opacity:.5" id="stop4"/></linearGradient><path style="display:inline;fill:url(#SVGID_00000150823088204773602280000003568362888554918308_)" d="M212.395 28.453v111.056a28.48 28.48 0 0 1-6.4 18c-4-4.895-9.6-8.424-16.117-9.836L34.446 114.592C14.964 110.45.871 93.628.047 73.887H0v-.165c0-20.517 14.376-38.258 34.446-42.54L178.043.642c17.694-3.765 34.352 9.717 34.352 27.81z" id="path4"/></svg>